<svg width="23" height="23" viewBox="0 0 23 23" fill="none" xmlns="http://www.w3.org/2000/svg">
<path d="M7.1875 3.59375H4.3125C3.91555 3.59375 3.59375 3.91555 3.59375 4.3125V18.6875C3.59375 19.0845 3.91555 19.4062 4.3125 19.4062H7.1875C7.58445 19.4062 7.90625 19.0845 7.90625 18.6875V4.3125C7.90625 3.91555 7.58445 3.59375 7.1875 3.59375Z" stroke="#9747FF" stroke-width="2" stroke-linecap="round" stroke-linejoin="round"/>
<path d="M3.59375 7.1875H7.90625" stroke="#9747FF" stroke-width="2" stroke-linecap="round" stroke-linejoin="round"/>
<path d="M11.5 3.59375H8.625C8.22805 3.59375 7.90625 3.91555 7.90625 4.3125V18.6875C7.90625 19.0845 8.22805 19.4062 8.625 19.4062H11.5C11.897 19.4062 12.2188 19.0845 12.2188 18.6875V4.3125C12.2188 3.91555 11.897 3.59375 11.5 3.59375Z" stroke="#9747FF" stroke-width="2" stroke-linecap="round" stroke-linejoin="round"/>
<path d="M7.90625 15.8125H12.2188" stroke="#9747FF" stroke-width="2" stroke-linecap="round" stroke-linejoin="round"/>
<path d="M15.7706 3.35859L12.9819 4.10609C12.5968 4.2093 12.3683 4.60511 12.4715 4.99016L16.209 18.9339C16.3123 19.319 16.7081 19.5474 17.0931 19.4442L19.8819 18.6967C20.2669 18.5935 20.4954 18.1977 20.3922 17.8127L16.6547 3.86891C16.5515 3.48386 16.1557 3.25539 15.7706 3.35859Z" stroke="#9747FF" stroke-width="2.00848" stroke-linecap="round" stroke-linejoin="round"/>
<path d="M15.3813 16.1001L19.5501 14.9771" stroke="#9747FF" stroke-width="2" stroke-linecap="round" stroke-linejoin="round"/>
<path d="M13.1533 7.7625L17.3221 6.64844" stroke="#9747FF" stroke-width="2" stroke-linecap="round" stroke-linejoin="round"/>
</svg>
