<svg width="41" height="37" viewBox="0 0 41 37" fill="none" xmlns="http://www.w3.org/2000/svg">
<path d="M20.5 0.999998C10.835 0.999998 3 8.83501 3 18.5C3 28.165 10.835 36 20.5 36C30.165 36 38 28.165 38 18.5C38 8.83502 30.165 0.999999 20.5 0.999998Z" stroke="#520096" stroke-width="2" stroke-linecap="round" stroke-linejoin="round"/>
<path d="M38 18.5L3 18.5" stroke="#520096" stroke-width="2" stroke-linecap="round" stroke-linejoin="round"/>
<path d="M20.1632 36C15.7438 31.2079 13.2323 24.9889 13.0959 18.5C13.2323 12.0111 15.7438 5.79212 20.1632 0.999999C24.5825 5.79212 27.094 12.0111 27.2305 18.5C27.094 24.9889 24.5825 31.2079 20.1632 36V36Z" stroke="#520096" stroke-width="2" stroke-linecap="round" stroke-linejoin="round"/>
<rect x="41" y="36" width="20" height="10" rx="1" transform="rotate(-180 41 36)" fill="#520096"/>
<path d="M38.3402 28L38.3402 33.8182L34.5561 33.8182L34.5561 32.9347L37.2862 32.9347L37.2862 31.3551L34.7521 31.3551L34.7521 30.4716L37.2862 30.4716L37.2862 28.8835L34.5334 28.8835L34.5334 28L38.3402 28ZM28.6996 33.8182L28.6996 28L29.6371 28L32.3786 31.9631L32.4268 31.9631L32.4268 28L33.4808 28L33.4808 33.8182L32.5376 33.8182L29.799 29.8523L29.7479 29.8523L29.7479 33.8182L28.6996 33.8182ZM23.6534 31.9602C23.7008 32.1136 23.7661 32.2509 23.8494 32.3722C23.9309 32.4953 24.0294 32.6004 24.1449 32.6875C24.2585 32.7746 24.3892 32.84 24.5369 32.8835C24.6847 32.929 24.8456 32.9517 25.0199 32.9517C25.3324 32.9517 25.6108 32.8731 25.8551 32.7159C26.0994 32.5587 26.2917 32.3277 26.4318 32.0227C26.5701 31.7197 26.6392 31.3504 26.6392 30.9148C26.6392 30.4754 26.5701 30.1032 26.4318 29.7983C26.2936 29.4934 26.1013 29.2614 25.8551 29.1023C25.6089 28.9451 25.3229 28.8665 24.9972 28.8665C24.7017 28.8665 24.446 28.9233 24.2301 29.0369C24.0123 29.1506 23.8447 29.3116 23.7273 29.5199C23.6098 29.7301 23.5511 29.9763 23.5511 30.2585L23.3125 30.2216L24.892 30.2216L24.892 31.0455L22.5313 31.0455L22.5313 30.3466C22.5313 29.8485 22.6373 29.4176 22.8494 29.054C23.0616 28.6903 23.3532 28.41 23.7244 28.2131C24.0956 28.018 24.5218 27.9205 25.0028 27.9205C25.5388 27.9205 26.0095 28.0407 26.4148 28.2812C26.8182 28.5237 27.1335 28.8674 27.3608 29.3125C27.5862 29.7595 27.6989 30.2898 27.6989 30.9034C27.6989 31.3731 27.6326 31.7926 27.5 32.1619C27.3655 32.5312 27.178 32.8447 26.9375 33.1023C26.697 33.3617 26.4148 33.5587 26.0909 33.6932C25.767 33.8295 25.4148 33.8977 25.0341 33.8977C24.7121 33.8977 24.4119 33.8504 24.1335 33.7557C23.8551 33.6629 23.608 33.5303 23.392 33.358C23.1742 33.1856 22.9953 32.9811 22.8551 32.7443C22.715 32.5076 22.6231 32.2462 22.5795 31.9602L23.6534 31.9602Z" fill="white"/>
</svg>
