<svg width="23" height="23" viewBox="0 0 23 23" fill="none" xmlns="http://www.w3.org/2000/svg">
<path d="M15.8125 2.875V11.5L12.9375 9.34375L10.0625 11.5V2.875" stroke="#9747FF" stroke-width="2" stroke-linecap="round" stroke-linejoin="round"/>
<path d="M4.31252 19.4063C4.31133 19.1228 4.36629 18.8418 4.47423 18.5797C4.58217 18.3176 4.74096 18.0794 4.94142 17.8789C5.14188 17.6785 5.38006 17.5197 5.6422 17.4117C5.90435 17.3038 6.18527 17.2488 6.46877 17.25H18.6875V2.87502H6.46877C6.18527 2.87383 5.90435 2.92879 5.6422 3.03673C5.38006 3.14467 5.14188 3.30346 4.94142 3.50392C4.74096 3.70438 4.58217 3.94256 4.47423 4.2047C4.36629 4.46685 4.31133 4.74777 4.31252 5.03127V19.4063Z" stroke="#9747FF" stroke-width="2" stroke-linecap="round" stroke-linejoin="round"/>
<path d="M4.3125 19.4062V20.125H17.25" stroke="#9747FF" stroke-width="2" stroke-linecap="round" stroke-linejoin="round"/>
</svg>
