<svg width="172" height="155" viewBox="0 0 172 155" fill="none" xmlns="http://www.w3.org/2000/svg">
<path d="M60.8712 51.6032C60.8712 51.6032 84.4779 32.5192 114.109 54.6153L139.72 99.3064C139.72 99.3064 134.685 128.937 133.188 128.937C131.691 128.937 124.651 138.482 119.13 140.505C119.13 140.505 100.046 153.565 93.038 153.061C93.038 153.061 76.9661 154.567 74.4575 153.061C71.949 151.555 60.3951 150.548 50.8508 139.502C41.3065 128.457 37.4202 123.055 37.4202 123.055L46.8363 56.6386L60.8712 51.6032Z" fill="white"/>
<path d="M144.152 77.4164L143.959 77.5125C143.907 77.5365 143.858 77.5673 143.813 77.604C143.534 77.8604 143.621 78.3685 143.914 79.0323C144.902 81.2432 148.29 85.1754 148.578 87.1072C149.187 91.1766 149.182 90.0368 150.354 94.9257C151.082 97.9652 143.167 89.6019 143.602 92.4401C144.037 95.2782 147.397 99.8191 147.155 102.053C146.971 103.728 143.172 101.321 142.179 102.053C141.08 102.854 142.778 106.786 142.536 108.462C142.078 111.666 140.929 110.448 140.773 114.87C140.773 115.195 140.773 115.552 140.773 115.951C140.788 116.661 140.721 117.371 140.572 118.065C140.467 118.562 140.258 119.03 139.959 119.439C139.391 120.194 138.622 120.615 137.931 122.002C135.802 126.255 134.543 126.58 133.664 127.331C133.664 127.331 133.554 127.504 132.03 129.436C131.165 130.526 129.856 132.183 127.86 134.668C127.75 134.81 127.608 134.923 127.445 134.999C127.283 135.074 127.105 135.11 126.926 135.103C126.746 135.096 126.572 135.046 126.416 134.958C126.26 134.869 126.127 134.745 126.029 134.595C122.87 129.706 121.209 124.483 121.209 120.872C121.209 110.567 107.348 102.392 94.2008 89.5974C82.711 78.4189 89.1243 51.7772 90.9233 45.2221C91.1842 44.2745 91.3536 43.7481 91.3536 43.7481L107.512 49.0215L107.705 49.081L107.911 48.7743C107.911 48.7743 148.377 75.3015 144.152 77.4164Z" fill="#D38A3C"/>
<path d="M76.069 87.4642C62.9221 100.259 49.0611 108.43 49.0611 118.743C49.0611 122.341 49.1161 134.009 43.6321 132.21C42.9043 131.968 42.1215 130.507 41.6271 129.487C41.4623 129.152 41.3296 128.864 41.2426 128.69C39.6771 125.564 40.5285 128.338 39.4665 126.561C38.551 125.019 37.6858 125.138 34.129 119.448C33.2144 117.921 32.5267 116.27 32.0874 114.545C30.7507 109.583 30.8286 104.113 30.2243 101.682C29.8673 100.259 30.0183 100.968 28.4482 101.325C27.963 101.435 25.7383 103.554 24.8914 102.039C23.2847 99.1554 29.0525 95.5299 28.0957 92.7925C27.5006 91.1171 21.5269 95.7679 21.3392 94.2207C20.6983 88.7505 25.9488 83.7517 26.0953 80.3185C26.0953 80.0485 27.4091 78.5699 27.9767 77.7414C28.1507 77.485 28.256 77.2836 28.2285 77.2195C28.201 77.1554 24.7129 75.2145 24.7129 75.2099C24.5527 74.8849 22.5477 72.7151 20.1811 69.9732C16.9355 66.2195 13.008 61.3718 12.1703 58.6573C10.7466 54.034 5.65176 44.659 4.63553 39.0698C0.616394 16.9737 1.62347 19.9858 1.62347 19.9858L4.13199 4.42191L9.58392 1.67535L11.1769 0.888L23.0009 6.56423L23.7104 6.90755L36.2668 15.9437L65.394 47.5795L61.146 50.143L62.2492 49.731L79.0032 43.4872L79.2687 43.3865V43.4414C79.3374 43.6428 79.5571 44.3569 79.8638 45.515C81.8322 52.7751 87.1651 76.6839 76.069 87.4642Z" fill="#D38A3C"/>
<path d="M23.4951 57.7647C14.8134 48.1308 10.2602 35.4739 10.8152 22.5172C11.1905 14.6437 13.3969 8.99952 20.1306 14.1951C31.7165 23.1397 41.7826 30.2167 48.9695 36.1676C49.7019 36.7718 43.9341 37.3349 45.3669 39.2941C46.8455 41.3357 40.6749 42.1093 41.4302 43.9724C41.9291 45.2083 50.9424 44.7506 50.5854 45.2953L43.2612 59.6507C43.0506 60.1908 42.7622 65.4093 42.4739 65.9128C41.6682 67.3182 39.3336 68.815 38.267 70.1837C37.5438 71.0993 37.0814 71.5204 36.2575 70.6873L23.4951 57.7647Z" fill="white"/>
<path d="M43.4581 65.7892C43.1881 65.8597 42.9012 65.8215 42.6591 65.6828C42.4169 65.5442 42.2387 65.3162 42.1627 65.0477C40.5422 59.2479 46.3878 49.6303 48.8734 45.9041L37.315 44.833C37.0687 44.8101 36.8381 44.7024 36.6625 44.5282C36.4869 44.3541 36.3773 44.1243 36.3524 43.8783C36.3275 43.6322 36.3889 43.3851 36.5261 43.1794C36.6633 42.9736 36.8677 42.8219 37.1044 42.7502L45.0511 40.3286L42.1077 39.6511C41.8851 39.6017 41.6842 39.4818 41.535 39.3093C41.3857 39.1368 41.296 38.9208 41.279 38.6933C41.2621 38.4658 41.3188 38.2389 41.4409 38.0462C41.5629 37.8535 41.7438 37.7052 41.9567 37.6233C42.657 37.344 43.3849 37.1014 44.0944 36.8634C44.9184 36.5841 45.7607 36.3049 46.5526 35.9479C42.4327 33.8376 38.702 30.5554 35.3558 27.6166C34.692 27.0307 34.0374 26.4585 33.4011 25.9092C32.2476 24.9204 31.1123 23.9042 30.0046 22.9246C26.933 20.178 24.0308 17.6191 20.6891 15.2891C17.8373 13.3025 15.6812 12.4465 14.2805 12.7394C13.9794 12.8033 13.696 12.9324 13.4501 13.1174C13.2042 13.3024 13.0017 13.539 12.8569 13.8106C11.7445 15.6416 11.7765 18.2783 11.804 20.4023V20.6404C11.8864 27.7997 13.365 34.8309 14.6421 40.1409C14.6768 40.2772 14.6838 40.4189 14.6628 40.5579C14.6418 40.6969 14.5931 40.8303 14.5198 40.9502C14.4464 41.07 14.3497 41.174 14.2355 41.256C14.1213 41.3379 13.9919 41.3961 13.8548 41.4272C13.5798 41.4934 13.2898 41.4476 13.0486 41.2999C12.8074 41.1523 12.6347 40.9149 12.5685 40.6399C11.2639 35.2154 9.75782 28.0378 9.67085 20.6678V20.4298C9.64338 18.0311 9.60676 15.0511 11.0441 12.7028C11.3401 12.1819 11.7433 11.7298 12.2271 11.3762C12.7108 11.0227 13.264 10.7759 13.8502 10.652C16.5556 10.0844 19.7507 12.0253 21.9205 13.5405C25.2436 15.9424 28.4201 18.541 31.4328 21.3224C32.5314 22.2975 33.6666 23.3045 34.8065 24.2841C35.4473 24.838 36.1065 25.4148 36.7748 26.0053C40.5376 29.3058 44.8039 33.0502 49.3815 34.8813C49.5631 34.9522 49.7216 35.0716 49.8397 35.2266C49.9579 35.3815 50.0311 35.566 50.0514 35.7598C50.0718 35.9535 50.0384 36.1492 49.9549 36.3253C49.8715 36.5014 49.7412 36.6511 49.5784 36.7581C48.52 37.4327 47.3822 37.9739 46.191 38.3694L49.4273 39.1156C49.6564 39.168 49.8618 39.2946 50.0116 39.4758C50.1613 39.6569 50.247 39.8825 50.2554 40.1174C50.2637 40.3523 50.1942 40.5833 50.0578 40.7747C49.9213 40.966 49.7254 41.1069 49.5006 41.1755L42.918 43.185L50.8876 43.9175C51.0751 43.9348 51.2548 44.0015 51.4082 44.1108C51.5616 44.2201 51.6833 44.3681 51.761 44.5397C51.8386 44.7113 51.8695 44.9005 51.8503 45.0879C51.8312 45.2752 51.7628 45.4542 51.652 45.6066C49.0977 49.113 42.7898 59.3394 44.2226 64.4389C44.2987 64.7108 44.2638 65.0018 44.1257 65.2481C43.9875 65.4944 43.7573 65.6758 43.4856 65.7526L43.4581 65.7892Z" fill="black"/>
<path d="M84.8762 118.455C79.6485 118.665 70.8641 110.416 71.7018 104.099C72.4388 98.6656 78.4675 97.4754 84.6107 97.4754C92.8504 97.4525 97.0297 98.8487 97.5332 103.76C98.1237 109.482 91.413 118.189 84.8762 118.455Z" fill="black"/>
<path d="M108.391 119.356C106.341 125.033 103.287 128.425 99.3186 129.427C98.4873 129.64 97.6318 129.745 96.7735 129.738H96.5446C95.8299 129.723 95.1178 129.646 94.416 129.509C91.1797 128.873 88.369 127.12 86.8264 125.994C86.5929 125.824 86.3686 125.66 86.2084 125.536C85.8056 125.792 85.4073 126.03 85.0091 126.259C81.5987 128.196 78.367 129.134 75.3366 129.061C74.6129 129.046 73.8918 128.971 73.1805 128.837L72.7228 128.745C72.265 128.64 71.8073 128.512 71.3953 128.365C63.7003 125.715 60.5921 116.633 60.4685 116.248C60.4241 116.115 60.4062 115.975 60.4159 115.835C60.4257 115.695 60.4628 115.559 60.5253 115.434C60.5878 115.308 60.6744 115.196 60.7801 115.104C60.8858 115.012 61.0086 114.942 61.1414 114.898C61.2743 114.853 61.4146 114.835 61.5544 114.845C61.6941 114.855 61.8306 114.892 61.956 114.955C62.0814 115.017 62.1933 115.104 62.2852 115.209C62.3771 115.315 62.4474 115.438 62.4918 115.571C62.5376 115.708 65.4215 124.062 72.1048 126.351C72.438 126.466 72.7772 126.562 73.121 126.639L73.4094 126.699C74.0193 126.83 74.6398 126.905 75.2633 126.923C78.431 127.033 81.9329 125.834 85.6911 123.325L85.7781 123.27C85.9489 123.154 86.154 123.099 86.3601 123.114C86.5662 123.128 86.7612 123.213 86.9133 123.353L86.9866 123.421C87.0369 123.462 90.5388 126.525 94.6861 127.39C95.1627 127.493 95.6461 127.562 96.1326 127.596C96.3661 127.596 96.5904 127.619 96.8239 127.619C97.4925 127.622 98.1587 127.539 98.8059 127.372C102.01 126.548 104.574 123.627 106.373 118.674C106.454 118.435 106.614 118.231 106.828 118.096C107.041 117.961 107.294 117.904 107.545 117.933C107.702 117.956 107.852 118.013 107.984 118.102C108.115 118.19 108.226 118.306 108.307 118.443C108.388 118.579 108.438 118.732 108.453 118.89C108.467 119.048 108.446 119.207 108.391 119.356Z" fill="black"/>
<path d="M113.967 54.771C113.865 54.8811 113.742 54.9692 113.605 55.0299C113.468 55.0905 113.32 55.1223 113.17 55.1234C112.907 55.1219 112.653 55.0205 112.461 54.8396C111.197 53.696 109.86 52.6349 108.46 51.6628C107.879 51.2554 107.284 50.8617 106.684 50.4955C101.906 47.5495 96.5124 45.7449 90.9233 45.2221C87.2429 44.8746 83.5339 44.9745 79.8775 45.5196C78.9986 45.6386 78.1106 45.7897 77.2088 45.9774C72.1999 46.9637 67.329 48.5531 62.7023 50.7106C61.9699 51.0494 61.3291 51.3606 60.7935 51.6261C59.5896 52.235 58.9075 52.6424 58.8892 52.6561C58.6464 52.8018 58.3557 52.845 58.0809 52.7764C57.8062 52.7077 57.5701 52.5327 57.4244 52.2899C57.2787 52.0471 57.2354 51.7563 57.3041 51.4816C57.3728 51.2069 57.5478 50.9707 57.7906 50.8251C57.8867 50.7701 58.6191 50.3261 59.8871 49.6807L60.679 49.2824C61.0178 49.1176 61.3886 48.9345 61.7914 48.7514C66.5603 46.53 71.5802 44.8931 76.7418 43.8763C77.5017 43.7344 78.2525 43.6016 79.0032 43.4917L79.2824 43.446C89.875 41.9033 99.5429 43.6886 107.718 48.6553L107.911 48.7743C108.446 49.0993 108.973 49.4426 109.504 49.8043C111.043 50.8542 112.507 52.0105 113.885 53.2649C114.094 53.4544 114.22 53.7189 114.236 54.001C114.251 54.283 114.155 54.5598 113.967 54.771Z" fill="black"/>
<path d="M121.177 139.818C111.797 147.6 102.198 152.443 92.6581 154.219C89.9138 154.734 87.1281 154.994 84.336 154.998C79.4431 154.991 74.5843 154.183 69.9532 152.603C57.4106 148.36 49.9903 140.047 49.679 139.704C49.5795 139.6 49.502 139.477 49.4514 139.342C49.4007 139.207 49.3778 139.064 49.3841 138.92C49.3904 138.776 49.4257 138.635 49.488 138.505C49.5502 138.375 49.6381 138.26 49.7463 138.165C49.8545 138.07 49.9809 137.998 50.1177 137.953C50.2545 137.908 50.3989 137.891 50.5423 137.904C50.6857 137.916 50.8251 137.958 50.9521 138.026C51.0791 138.093 51.191 138.186 51.2812 138.298C56.6993 143.879 63.3612 148.099 70.7222 150.612C86.8308 156.014 103.351 151.83 119.817 138.175C120.035 137.993 120.316 137.905 120.599 137.93C120.882 137.955 121.143 138.092 121.325 138.31C121.507 138.528 121.596 138.809 121.57 139.092C121.545 139.375 121.408 139.636 121.19 139.818H121.177Z" fill="black"/>
<path d="M78.2798 109.244C80.7975 109.977 83.3151 107.83 82.807 105.257C82.7695 104.777 82.5443 104.331 82.1801 104.016C81.816 103.7 81.3422 103.541 80.8615 103.573C77.1995 103.532 75.3684 108.205 77.3826 108.951C77.671 109.057 77.9731 109.157 78.2798 109.244Z" fill="#282828"/>
<path d="M90.6211 109.377C88.0439 109.835 85.7643 107.459 86.5013 104.951C86.7805 104.035 87.3939 103.362 88.607 103.472C92.2691 103.802 93.6195 108.64 91.5229 109.176C91.2437 109.267 90.9324 109.331 90.6211 109.377Z" fill="#282828"/>
<path d="M16.67 61.143C19.3388 64.6998 20.3321 67.5974 20.1628 69.9503C16.9172 66.1966 12.9897 61.349 12.152 58.6344C10.7283 54.0111 5.63345 44.6361 4.61722 39.0469C0.598084 16.9508 1.60516 19.9629 1.60516 19.9629L4.11368 4.39902L9.56561 1.65246L11.1769 0.888L23.0009 6.56423L24.1132 8.11145C24.1132 8.11145 13.1636 2.38488 10.6551 6.90755C8.14655 11.4302 3.12034 43.066 16.67 61.143Z" fill="#BC6F2F"/>
<path d="M67.5089 47.7947C66.8818 48.3028 66.337 48.7606 65.8838 49.168C65.4673 48.6507 65.0049 48.0922 64.5106 47.5109C59.8002 41.8163 52.3753 33.389 44.3188 25.3415C29.1532 10.2126 17.5215 2.22008 10.6917 2.26128C9.73178 2.21702 8.77657 2.41978 7.9174 2.85017C7.05824 3.28055 6.32386 3.92416 5.78451 4.71945C1.92101 10.2126 1.62347 20.7411 4.89645 36.0989C8.45782 52.7797 16.7479 66.6956 28.4253 76.1575C28.9929 76.6153 29.5651 77.073 30.1465 77.5033C29.6887 78.0297 29.231 78.5928 28.7732 79.1833C28.1873 78.7255 27.6151 78.2998 27.0475 77.8421C22.9485 74.5138 19.2769 70.6915 16.1162 66.4621C9.80364 58.0485 5.20315 47.694 2.84111 36.5429C-0.596671 20.5717 -0.18011 9.46185 4.04502 3.47434C4.77754 2.39817 5.77112 1.52542 6.93277 0.937794C8.09442 0.350164 9.38616 0.0668569 10.6871 0.114383C25.5277 0.0640298 54.3712 31.9791 66.1402 46.133C66.3736 46.4214 66.5979 46.7006 66.8314 46.9707C67.0649 47.2408 67.2846 47.5292 67.5089 47.7947Z" fill="black"/>
<path d="M32.0873 114.545C30.7507 109.583 30.8285 104.113 30.2242 101.682C29.8672 100.259 30.0183 100.968 28.4481 101.325C27.9629 101.435 25.7382 103.554 24.8913 102.039C23.2846 99.1554 29.0524 95.5299 28.0957 92.7925C27.5006 91.1171 21.5268 95.768 21.3391 94.2207C20.6983 88.7505 25.9488 83.7517 26.0952 80.3185C26.0952 80.0485 27.409 78.5699 27.9766 77.7414C28.1506 77.485 28.2559 77.2836 28.2284 77.2195C28.2009 77.1554 30.238 76.2216 30.238 76.2124C30.238 76.2033 29.945 75.9652 30.238 74.7064L34.2571 72.6968C34.2571 72.6968 28.7319 84.2461 28.7319 85.7522C28.7319 87.2582 33.7673 86.7547 33.7673 86.7547C33.7673 86.7547 27.2396 97.805 30.2517 97.2831C33.2638 96.7613 33.7673 97.7867 33.7673 97.7867C33.7673 97.7867 32.2613 116.871 35.7769 120.89C36.6924 121.966 34.7332 115.328 32.0873 114.545Z" fill="#BC6F2F"/>
<path d="M42.3365 129.184C42.1465 129.371 41.8931 129.479 41.627 129.487C41.6136 129.491 41.5992 129.491 41.5858 129.487C41.4442 129.487 41.3039 129.459 41.1734 129.403C41.0428 129.348 40.9247 129.268 40.8259 129.166C29.8992 118.18 29.0295 106.498 29.121 102.392L25.8892 103.202C25.5529 103.291 25.1985 103.287 24.8645 103.189C24.5305 103.091 24.2295 102.904 23.9941 102.648C23.7856 102.413 23.6447 102.126 23.5867 101.817C23.5287 101.508 23.5555 101.19 23.6645 100.895L26.3744 93.6714L24.31 95.0447C23.926 95.299 23.4776 95.4387 23.0172 95.4477C22.5568 95.4566 22.1034 95.3343 21.7099 95.095C21.3602 94.8897 21.0771 94.5879 20.8944 94.2258C20.7117 93.8638 20.6373 93.4567 20.6799 93.0534C21.2357 88.3342 22.9136 83.8168 25.5734 79.8791L25.967 79.3023C26.2417 78.8995 26.5255 78.5104 26.8185 78.1305L27.0474 77.8283C27.5051 77.2332 27.9629 76.6748 28.4206 76.1438C30.9225 73.2535 33.8564 70.7674 37.1181 68.7738C37.2386 68.6849 37.3766 68.6226 37.523 68.5908C37.6694 68.559 37.8208 68.5585 37.9674 68.5894C38.114 68.6203 38.2523 68.6819 38.3734 68.77C38.4945 68.8582 38.5956 68.971 38.67 69.101C38.7444 69.2309 38.7905 69.3752 38.8052 69.5243C38.8199 69.6733 38.8029 69.8238 38.7554 69.9658C38.7078 70.1079 38.6307 70.2382 38.5292 70.3484C38.4277 70.4585 38.304 70.5459 38.1664 70.6049C35.5496 72.2413 33.1555 74.2092 31.0436 76.4596C30.7369 76.7846 30.4256 77.1188 30.1281 77.4713C29.6703 77.9977 29.2126 78.5607 28.7548 79.1513C28.6587 79.2657 28.5671 79.3847 28.4756 79.5083C28.0544 80.0576 27.6424 80.639 27.2488 81.2478C24.838 84.8391 23.3074 88.9479 22.781 93.2411C22.8303 93.2746 22.8885 93.2925 22.9481 93.2925C23.0077 93.2925 23.0659 93.2746 23.1152 93.2411L27.8027 90.1512C27.9994 90.0108 28.2364 89.9379 28.4781 89.9437C28.7198 89.9494 28.9531 90.0334 29.143 90.183C29.3328 90.3326 29.469 90.5398 29.5311 90.7735C29.5932 91.0071 29.5778 91.2546 29.4872 91.4787L25.9075 101.005L31.5334 99.5811L31.3183 101.137C31.3183 101.275 29.8214 115.104 42.3045 127.688C42.5032 127.884 42.6177 128.15 42.6237 128.43C42.6297 128.709 42.5267 128.98 42.3365 129.184Z" fill="black"/>
<path d="M143.602 92.4401C144.023 95.2278 147.397 99.8191 147.154 102.053C146.971 103.728 143.172 101.321 142.179 102.053C141.08 102.854 142.778 106.786 142.536 108.462C142.078 111.666 140.929 110.448 140.773 114.87C138.8 115.845 138.581 119.53 139.217 117.942C141.226 112.907 136.205 98.3589 136.205 97.3427C136.205 96.3264 141.24 97.3427 141.24 97.3427L138.727 87.2994C138.727 87.2994 144.252 89.8125 145.255 88.8054C146.257 87.7984 139.35 74.9765 139.221 74.7064L143.799 77.604C143.52 77.8604 143.607 78.3685 143.9 79.0323C144.889 81.2432 148.276 85.1754 148.564 87.1071C149.173 91.1766 149.169 90.0368 150.34 94.9257C151.082 97.9652 143.167 89.6019 143.602 92.4401Z" fill="#BC6F2F"/>
<path d="M144.843 78.8034C144.614 78.5012 144.385 78.2037 144.156 77.9153C143.927 77.6269 143.721 77.3797 143.502 77.1188C140.904 74.0263 137.821 71.3764 134.374 69.2728C134.252 69.1982 134.116 69.1488 133.975 69.1277C133.833 69.1066 133.689 69.1141 133.551 69.1498C133.412 69.1856 133.282 69.2488 133.169 69.3357C133.055 69.4227 132.96 69.5315 132.89 69.6559C132.819 69.7802 132.774 69.9175 132.758 70.0595C132.741 70.2016 132.754 70.3455 132.794 70.4827C132.834 70.6199 132.901 70.7476 132.992 70.8583C133.083 70.9689 133.194 71.0602 133.321 71.1267C136.506 73.1152 139.363 75.586 141.79 78.4509C142.247 78.9773 142.705 79.5358 143.122 80.1217C146.217 84.1474 148.162 88.9382 148.748 93.9827L143.506 90.4946C143.323 90.3731 143.106 90.3128 142.887 90.3222C142.667 90.3317 142.457 90.4105 142.285 90.5473C142.113 90.6841 141.989 90.8719 141.93 91.0837C141.872 91.2954 141.882 91.5203 141.959 91.7259L145.621 101.485L139.716 99.9931L140.215 101.769C140.256 101.911 143.946 115.502 131.472 128.068C131.372 128.167 131.294 128.284 131.24 128.414C131.186 128.544 131.158 128.682 131.158 128.823C131.158 128.963 131.186 129.102 131.24 129.232C131.294 129.361 131.372 129.479 131.472 129.578C131.62 129.721 131.806 129.82 132.007 129.862C132.078 129.878 132.15 129.888 132.222 129.889C132.506 129.886 132.778 129.775 132.982 129.578C135.831 126.769 138.185 123.498 139.945 119.906C140.165 119.448 140.371 118.99 140.558 118.532C142.662 113.632 143.377 108.248 142.627 102.969L145.951 103.815C146.255 103.896 146.575 103.891 146.876 103.801C147.177 103.711 147.448 103.54 147.658 103.307C147.852 103.095 147.983 102.834 148.038 102.552C148.092 102.27 148.067 101.978 147.965 101.71L144.303 92.9665L148.72 96.5782C148.949 96.7287 149.215 96.813 149.489 96.8219C149.763 96.8307 150.034 96.7638 150.272 96.6285C150.497 96.5018 150.682 96.3155 150.808 96.0902C150.934 95.865 150.996 95.6093 150.986 95.3514C150.647 89.3435 148.506 83.577 144.843 78.8034Z" fill="black"/>
<path d="M75.3228 127.605C75.3228 127.605 84.478 136.303 96.3797 128.521" stroke="black" stroke-width="2" stroke-miterlimit="10"/>
<path d="M161.839 107.464L153.032 94.3397C152.194 93.2603 151.276 92.2458 150.286 91.3048L107.078 50.6008L131.316 46.339L161.395 71.5937L166.431 91.8221L161.839 107.464Z" fill="#D38A3C"/>
<path d="M116.063 55.7368C116.063 55.7368 152.684 66.7231 161.29 101.389L160.407 66.3477L150.629 56.1717C147.673 53.1021 143.913 50.9261 139.779 49.8924C135.645 48.8586 131.304 49.0089 127.251 50.3261L115.606 55.3019L116.063 55.7368Z" fill="white"/>
<path d="M107.366 49.786C109.412 47.5338 111.458 46.3299 114.209 45.0298C125.878 39.5367 158.96 29.0998 167.79 60.3145C176.277 90.3023 166.994 102.753 163.309 107.185C162.659 107.963 162.851 106.644 162.755 105.633C162.21 98.1346 157.262 77.6452 148.688 67.7119C137.578 54.8213 115.148 55.2791 115.148 55.2791L106.945 50.4039L107.366 49.786Z" fill="#BC6F2F"/>
<path d="M163.611 108.393C163.494 108.393 163.378 108.384 163.263 108.366C157.486 107.4 151.21 95.2781 150.29 93.4334C148.976 91.7351 129 65.9678 120.943 62.9923C120.788 62.9531 120.642 62.8816 120.516 62.7826C120.39 62.6836 120.286 62.5592 120.212 62.4175C120.137 62.2758 120.092 62.12 120.082 61.9601C120.071 61.8002 120.094 61.6398 120.149 61.4893C120.204 61.3388 120.29 61.2016 120.401 61.0865C120.513 60.9714 120.647 60.881 120.796 60.8211C120.945 60.7613 121.104 60.7334 121.265 60.7391C121.425 60.7449 121.582 60.7842 121.726 60.8546C130.629 64.1321 151.288 90.9981 152.162 92.1379L152.277 92.3256C154.062 95.9144 159.546 105.344 163.57 106.104C164.81 105.573 168.074 97.9606 168.976 85.1021C169.434 78.8354 169.379 69.5383 166.719 60.8683C164.133 52.4226 159.665 46.5862 153.444 43.5238C143.199 38.4884 132.447 38.2367 121.492 42.8051C116.531 44.8646 111.949 47.7376 107.934 51.3057C107.825 51.41 107.698 51.492 107.558 51.5469C107.418 51.6019 107.269 51.6287 107.118 51.626C106.968 51.6232 106.82 51.5909 106.682 51.5308C106.544 51.4708 106.42 51.3842 106.315 51.2759C106.211 51.1677 106.129 51.0401 106.074 50.9002C106.019 50.7603 105.992 50.611 105.995 50.4607C105.998 50.3104 106.03 50.1622 106.09 50.0244C106.15 49.8867 106.237 49.7621 106.345 49.6578C110.535 45.8967 115.333 42.8752 120.536 40.7223C128.524 37.3761 140.892 34.7714 154.456 41.4684C165.95 47.1309 169.772 60.2366 170.958 70.1929C172.359 81.9939 170.66 94.5 168.358 101.659C166.898 106.173 165.341 108.393 163.611 108.393Z" fill="black"/>
<path d="M162.755 108.15C162.464 108.151 162.184 108.04 161.972 107.841C161.76 107.642 161.633 107.369 161.615 107.079C160.301 86.7318 154.227 72.1567 143.556 63.7568C130.89 53.7822 115.954 56.2404 115.802 56.2678C115.503 56.32 115.195 56.2512 114.947 56.0765C114.698 55.9018 114.529 55.6355 114.477 55.3363C114.425 55.037 114.494 54.7293 114.669 54.4807C114.843 54.2322 115.11 54.0633 115.409 54.0111C116.059 53.9012 131.453 51.3332 144.943 61.9349C156.163 70.7514 162.54 85.8895 163.899 106.933C163.918 107.236 163.816 107.535 163.615 107.763C163.414 107.991 163.131 108.13 162.828 108.15H162.755Z" fill="black"/>
<path d="M75.8995 78.6706C75.7622 84.3468 69.7152 89.4326 63.9611 86.6814C58.9578 84.2827 57.3053 77.2424 60.8896 72.9486C64.9087 68.1467 72.9195 69.7031 75.2861 75.3793C75.7217 76.4205 75.9308 77.5424 75.8995 78.6706Z" fill="#BC6F2F"/>
<path d="M109.069 79.165C109.046 85.8666 101.52 90.0093 95.835 86.3564C90.9965 83.2482 90.5983 76.0385 95.0843 72.413C96.4857 71.3252 98.1806 70.6816 99.9508 70.5649C101.721 70.4482 103.486 70.8639 105.018 71.7584C106.277 72.5363 107.312 73.6279 108.022 74.9263C108.732 76.2246 109.093 77.6853 109.069 79.165Z" fill="#BC6F2F"/>
<path d="M71.4958 82.1267C68.6256 84.6032 63.5765 84.9602 62.4916 79.5816C61.4342 74.3494 68.1175 70.9299 71.862 74.6698C74.5353 77.3339 73.6061 80.3048 71.4958 82.1267Z" fill="black"/>
<path d="M69.1843 78.2495C70.0666 78.2495 70.7818 77.5342 70.7818 76.6519C70.7818 75.7696 70.0666 75.0543 69.1843 75.0543C68.3019 75.0543 67.5867 75.7696 67.5867 76.6519C67.5867 77.5342 68.3019 78.2495 69.1843 78.2495Z" fill="#E5E5E5"/>
<path d="M103.319 82.8866C102.765 83.4925 102.071 83.9551 101.299 84.2348C100.526 84.5146 99.6978 84.6033 98.8837 84.4933C90.2229 83.326 94.448 69.5932 102.157 74.212C102.868 74.6526 103.473 75.2454 103.929 75.9478C104.384 76.6503 104.677 77.4449 104.789 78.2744C104.9 79.104 104.826 79.9479 104.572 80.7454C104.318 81.5429 103.89 82.2742 103.319 82.8866Z" fill="black"/>
<path d="M96.9062 79.3161C97.7885 79.3161 98.5038 78.6008 98.5038 77.7185C98.5038 76.8362 97.7885 76.1209 96.9062 76.1209C96.0239 76.1209 95.3086 76.8362 95.3086 77.7185C95.3086 78.6008 96.0239 79.3161 96.9062 79.3161Z" fill="#E5E5E5"/>
</svg>
