<svg width="22" height="22" viewBox="0 0 22 22" fill="none" xmlns="http://www.w3.org/2000/svg">
<path d="M18.2188 11C19.168 11 19.9375 10.2305 19.9375 9.28125C19.9375 8.33201 19.168 7.5625 18.2188 7.5625C17.2695 7.5625 16.5 8.33201 16.5 9.28125C16.5 10.2305 17.2695 11 18.2188 11Z" stroke="#9747FF" stroke-width="1.6" stroke-linecap="round" stroke-linejoin="round"/>
<path d="M3.78125 11C4.73049 11 5.5 10.2305 5.5 9.28125C5.5 8.33201 4.73049 7.5625 3.78125 7.5625C2.83201 7.5625 2.0625 8.33201 2.0625 9.28125C2.0625 10.2305 2.83201 11 3.78125 11Z" stroke="#9747FF" stroke-width="1.6" stroke-linecap="round" stroke-linejoin="round"/>
<path d="M7.90625 6.875C8.85549 6.875 9.625 6.10549 9.625 5.15625C9.625 4.20701 8.85549 3.4375 7.90625 3.4375C6.95701 3.4375 6.1875 4.20701 6.1875 5.15625C6.1875 6.10549 6.95701 6.875 7.90625 6.875Z" stroke="#9747FF" stroke-width="1.6" stroke-linecap="round" stroke-linejoin="round"/>
<path d="M14.0938 6.875C15.043 6.875 15.8125 6.10549 15.8125 5.15625C15.8125 4.20701 15.043 3.4375 14.0938 3.4375C13.1445 3.4375 12.375 4.20701 12.375 5.15625C12.375 6.10549 13.1445 6.875 14.0938 6.875Z" stroke="#9747FF" stroke-width="1.6" stroke-linecap="round" stroke-linejoin="round"/>
<path d="M15.7441 13.3976C14.8827 12.9151 14.2465 12.1122 13.9738 11.1632V11.1632C13.7884 10.5178 13.398 9.95027 12.8616 9.54629C12.3252 9.14231 11.6719 8.92383 11.0004 8.92383C10.3289 8.92383 9.67557 9.14231 9.13917 9.54629C8.60277 9.95027 8.21237 10.5178 8.02692 11.1632C7.75426 12.1122 7.11806 12.9151 6.25661 13.3976C5.72061 13.6896 5.29699 14.1517 5.05251 14.7109C4.80802 15.2702 4.75655 15.895 4.90621 16.4867C5.05587 17.0785 5.39816 17.6036 5.87914 17.9794C6.36013 18.3552 6.95247 18.5603 7.56286 18.5624C7.93163 18.5626 8.29677 18.4896 8.63708 18.3476C9.38626 18.0369 10.1893 17.8771 11.0004 17.8771C11.8114 17.8771 12.6145 18.0369 13.3636 18.3476C13.704 18.4896 14.0691 18.5626 14.4379 18.5624C15.0482 18.5603 15.6406 18.3552 16.1216 17.9794C16.6026 17.6036 16.9448 17.0785 17.0945 16.4867C17.2442 15.895 17.1927 15.2702 16.9482 14.7109C16.7037 14.1517 16.2801 13.6896 15.7441 13.3976Z" stroke="#9747FF" stroke-width="1.6" stroke-linecap="round" stroke-linejoin="round"/>
</svg>
